<svg xmlns="http://www.w3.org/2000/svg" viewBox="0 0 1440 320"><path fill="#0099ff" fill-opacity="1" d="M0,64L13.3,74.7C26.7,85,53,107,80,101.3C106.7,96,133,64,160,74.7C186.7,85,213,139,240,186.7C266.7,235,293,277,320,266.7C346.7,256,373,192,400,154.7C426.7,117,453,107,480,90.7C506.7,75,533,53,560,85.3C586.7,117,613,203,640,213.3C666.7,224,693,160,720,149.3C746.7,139,773,181,800,192C826.7,203,853,181,880,165.3C906.7,149,933,139,960,112C986.7,85,1013,43,1040,42.7C1066.7,43,1093,85,1120,106.7C1146.7,128,1173,128,1200,154.7C1226.7,181,1253,235,1280,218.7C1306.7,203,1333,117,1360,101.3C1386.7,85,1413,139,1427,165.3L1440,192L1440,320L1426.7,320C1413.3,320,1387,320,1360,320C1333.3,320,1307,320,1280,320C1253.3,320,1227,320,1200,320C1173.3,320,1147,320,1120,320C1093.3,320,1067,320,1040,320C1013.3,320,987,320,960,320C933.3,320,907,320,880,320C853.3,320,827,320,800,320C773.3,320,747,320,720,320C693.3,320,667,320,640,320C613.3,320,587,320,560,320C533.3,320,507,320,480,320C453.3,320,427,320,400,320C373.3,320,347,320,320,320C293.3,320,267,320,240,320C213.3,320,187,320,160,320C133.3,320,107,320,80,320C53.3,320,27,320,13,320L0,320Z"></path></svg>